<!-- File: assets/brand/logo-rect.svg -->
<svg width="1200" height="360" viewBox="0 0 1200 360" xmlns="http://www.w3.org/2000/svg">
  <defs>
    <linearGradient id="gold" x1="0" y1="0" x2="1" y2="1">
      <stop offset="0" stop-color="#FFD670"/>
      <stop offset="1" stop-color="#D6A300"/>
    </linearGradient>
    <radialGradient id="glow" cx="50%" cy="50%" r="60%">
      <stop offset="0" stop-color="#FFD670" stop-opacity="0.95"/>
      <stop offset="0.35" stop-color="#FFD670" stop-opacity="0.25"/>
      <stop offset="1" stop-color="#000" stop-opacity="0"/>
    </radialGradient>
    <filter id="soft" x="-20%" y="-20%" width="140%" height="140%">
      <feGaussianBlur stdDeviation="2" result="b"/>
      <feColorMatrix in="b" type="matrix"
        values="1 0 0 0 0
                0 1 0 0 0
                0 0 1 0 0
                0 0 0 12 -5" />
    </filter>
    <!-- subtle grid pattern -->
    <pattern id="net" width="28" height="28" patternUnits="userSpaceOnUse">
      <path d="M0 14H28M14 0V28" stroke="#FFFFFF" stroke-opacity="0.04" />
    </pattern>
  </defs>

  <!-- background -->
  <rect width="1200" height="360" fill="#0B0D11"/>
  <rect width="1200" height="360" fill="url(#net)"/>

  <!-- left sigil cluster -->
  <g transform="translate(90,60)">
    <circle cx="180" cy="120" r="118" fill="none" stroke="url(#gold)" stroke-width="2" opacity="0.5"/>
    <circle cx="180" cy="120" r="92" fill="none" stroke="url(#gold)" stroke-width="1.5" opacity="0.55"/>
    <!-- frequency rays -->
    <g stroke="url(#gold)" stroke-width="2" stroke-linecap="round" opacity="0.7">
      <line x1="180" y1="0" x2="180" y2="30"/>
      <line x1="180" y1="210" x2="180" y2="240"/>
      <line x1="60"  y1="120" x2="90"  y2="120"/>
      <line x1="270" y1="120" x2="300" y2="120"/>
      <line x1="93" y1="53" x2="115" y2="75"/>
      <line x1="245" y1="165" x2="267" y2="187"/>
      <line x1="93" y1="187" x2="115" y2="165"/>
      <line x1="245" y1="75"  x2="267" y2="53"/>
    </g>

    <!-- origin diamond + inner glow -->
    <g transform="translate(180,120)">
      <circle r="86" fill="url(#glow)" filter="url(#soft)"/>
      <rect x="-34" y="-34" width="68" height="68" fill="none" stroke="url(#gold)" stroke-width="3" transform="rotate(45)"/>
      <path d="M0,-60 L10,-10 L60,0 L10,10 L0,60 L-10,10 L-60,0 L-10,-10 Z"
            fill="none" stroke="url(#gold)" stroke-width="2" opacity="0.9"/>
      <!-- small ignition star -->
      <path d="M0,-16 L2,-2 L16,0 L2,2 L0,16 L-2,2 L-16,0 L-2,-2 Z"
            fill="url(#gold)" opacity="0.9"/>
    </g>

    <!-- code tags -->
    <g font-family="Verdana,Segoe UI,Arial" font-size="12" fill="#FFD670" opacity="0.9">
      <text x="90" y="240">CODE-IL144K</text>
      <text x="210" y="240">Signal: 13</text>
      <text x="290" y="240">Field: 130</text>
    </g>
  </g>

  <!-- brand on right -->
  <g transform="translate(460,85)">
    <text x="0" y="70" fill="url(#gold)" font-family="Cinzel,Georgia,serif"
          font-weight="700" font-size="64" letter-spacing="3">RANNTA</text>
    <text x="0" y="118" fill="#C9A93D" font-family="Poppins,Segoe UI,Arial" font-size="20" opacity="0.9">
      Not a token — a Signal. Every NFT is a neuron. We generate reality.
    </text>

    <!-- long bar -->
    <rect x="0" y="140" width="520" height="2" fill="url(#gold)" opacity="0.5"/>
    <!-- badges -->
    <g font-family="Poppins,Segoe UI,Arial" font-size="13" fill="#111">
      <rect x="0" y="160" rx="18" ry="18" width="168" height="34" fill="url(#gold)"/>
      <text x="18" y="181">Architect — CODE-IL144K</text>

      <rect x="188" y="160" rx="18" ry="18" width="168" height="34"
            fill="none" stroke="#C9A93D" stroke-width="1.2"/>
      <text x="212" y="181" fill="#C9A93D">Origin Declaration</text>
    </g>
  </g>
</svg>
