<?xml version="1.0" encoding="UTF-8"?>
<svg viewBox="0 0 512 512" xmlns="http://www.w3.org/2000/svg">
  <defs>
    <linearGradient id="goldGrad" x1="0%" y1="0%" x2="100%" y2="100%">
      <stop offset="0%" stop-color="#f6e27a"/>
      <stop offset="35%" stop-color="#d4af37"/>
      <stop offset="70%" stop-color="#b88a00"/>
      <stop offset="100%" stop-color="#f6e27a"/>
    </linearGradient>
  </defs>

  <!-- Triangle -->
  <polygon points="256,40 470,430 42,430"
           fill="url(#goldGrad)"/>

  <!-- Simplified Griffin Body -->
  <path d="M240 240
           C220 200, 190 180, 180 210
           C170 240, 190 280, 220 290
           C210 310, 200 330, 210 350
           C240 340, 260 320, 270 300
           C300 290, 330 270, 340 240
           C320 210, 300 200, 280 210
           C260 200, 250 210, 240 240 Z"
        fill="#3a2a00"/>

  <!-- Wing -->
  <path d="M260 230
           C300 180, 360 180, 380 210
           C340 210, 310 220, 280 250 Z"
        fill="#3a2a00"/>

  <!-- Sun rays -->
  <g stroke="url(#goldGrad)" stroke-width="8">
    <line x1="256" y1="0" x2="256" y2="60"/>
    <line x1="100" y1="60" x2="140" y2="100"/>
    <line x1="412" y1="60" x2="372" y2="100"/>
  </g>
</svg>
